<svg width="20" height="34" viewBox="0 0 20 34" fill="none" xmlns="http://www.w3.org/2000/svg">
<path d="M1.15417 1.57083C0.883785 1.84066 0.669272 2.16117 0.522909 2.51401C0.376547 2.86684 0.301208 3.24509 0.301208 3.62708C0.301208 4.00907 0.376547 4.38731 0.522909 4.74015C0.669272 5.09299 0.883785 5.41349 1.15417 5.68333L12.4708 17L1.15417 28.3167C0.608819 28.862 0.302444 29.6017 0.302444 30.3729C0.302444 31.1442 0.608819 31.8838 1.15417 32.4292C1.69952 32.9745 2.43918 33.2809 3.21042 33.2809C3.98166 33.2809 4.72132 32.9745 5.26667 32.4292L18.6542 19.0417C18.9246 18.7718 19.1391 18.4513 19.2854 18.0985C19.4318 17.7456 19.5071 17.3674 19.5071 16.9854C19.5071 16.6034 19.4318 16.2252 19.2854 15.8723C19.1391 15.5195 18.9246 15.199 18.6542 14.9292L5.26667 1.54166C4.15834 0.433326 2.29167 0.433327 1.15417 1.57083Z" fill="white"/>
</svg>
