<svg width="19" height="19" viewBox="0 0 19 19" fill="none" xmlns="http://www.w3.org/2000/svg">
<path d="M18.21 16.79L14.81 13.4C15.907 12.0025 16.5022 10.2767 16.5 8.5C16.5 6.91775 16.0308 5.37103 15.1518 4.05544C14.2727 2.73985 13.0233 1.71447 11.5615 1.10897C10.0997 0.503466 8.49113 0.34504 6.93928 0.653721C5.38743 0.962403 3.96197 1.72433 2.84315 2.84315C1.72433 3.96197 0.962403 5.38743 0.653721 6.93928C0.34504 8.49113 0.503466 10.0997 1.10897 11.5615C1.71447 13.0233 2.73985 14.2727 4.05544 15.1518C5.37103 16.0308 6.91775 16.5 8.5 16.5C10.2767 16.5022 12.0025 15.907 13.4 14.81L16.79 18.21C16.883 18.3037 16.9936 18.3781 17.1154 18.4289C17.2373 18.4797 17.368 18.5058 17.5 18.5058C17.632 18.5058 17.7627 18.4797 17.8846 18.4289C18.0064 18.3781 18.117 18.3037 18.21 18.21C18.3037 18.117 18.3781 18.0064 18.4289 17.8846C18.4797 17.7627 18.5058 17.632 18.5058 17.5C18.5058 17.368 18.4797 17.2373 18.4289 17.1154C18.3781 16.9936 18.3037 16.883 18.21 16.79ZM2.5 8.5C2.5 7.31332 2.8519 6.15328 3.51119 5.16658C4.17047 4.17989 5.10755 3.41085 6.2039 2.95673C7.30026 2.5026 8.50666 2.38378 9.67055 2.61529C10.8344 2.8468 11.9035 3.41825 12.7426 4.25736C13.5818 5.09648 14.1532 6.16558 14.3847 7.32946C14.6162 8.49335 14.4974 9.69975 14.0433 10.7961C13.5892 11.8925 12.8201 12.8295 11.8334 13.4888C10.8467 14.1481 9.68669 14.5 8.5 14.5C6.9087 14.5 5.38258 13.8679 4.25736 12.7426C3.13214 11.6174 2.5 10.0913 2.5 8.5Z" fill="#F8F8F8"/>
</svg>
