<svg width="22" height="20" viewBox="0 0 22 20" fill="none" xmlns="http://www.w3.org/2000/svg">
<path d="M9.30943 1.50097C10.0511 0.0441341 12.1324 0.0441349 12.8741 1.50097L14.5866 4.8649C14.886 5.45294 15.4561 5.85548 16.1105 5.94076L19.8303 6.42558C21.5186 6.64562 22.1774 8.74008 20.9191 9.88697L18.3461 12.2321C17.833 12.6997 17.5991 13.3999 17.7282 14.082L18.3776 17.5151C18.6864 19.1475 16.9855 20.4229 15.505 19.6691L11.9992 17.8841C11.4291 17.5938 10.7544 17.5938 10.1843 17.8841L6.67852 19.6691C5.19798 20.4229 3.49708 19.1475 3.8059 17.5151L4.45533 14.082C4.58436 13.3999 4.35048 12.6997 3.83742 12.2321L1.2644 9.88697C0.00605655 8.74008 0.664854 6.64562 2.35315 6.42558L6.07303 5.94076C6.72735 5.85548 7.29751 5.45294 7.59687 4.8649L9.30943 1.50097Z" fill="#FFC700"/>
</svg>
